<svg width="851" height="902" xmlns="http://www.w3.org/2000/svg" xmlns:xlink="http://www.w3.org/1999/xlink" fill="#ffffff"><defs><style>
  text {
    fill: #212529;
    font-family: Helvetica Neue, Helvetica, Arial, sans-serif;
    font-size: 16px;
  }

  marker, text {
    fill-opacity: 1;
  }

  * {
    overflow: visible;
  }
</style></defs><svg x="45" y="15" width="160" height="160" class="User" fill="#ffffff"><g><rect width="100%" height="40" stroke="none" fill="white" class="sc-fqkvVR eDtKfR"></rect><rect y="40" width="100%" height="120" stroke="none" fill="white" class="sc-fqkvVR eDtKfR"></rect><svg height="40"><text x="50%" y="50%" dominant-baseline="middle" text-anchor="middle" font-weight="bold" pointer-events="none">User</text></svg><svg x="0" y="40.5" width="159" height="30" class="- id: UUID" fill="#ffffff"><g><rect width="100%" height="100%" stroke="none" fill="white" class="sc-fqkvVR eDtKfR"></rect><text x="10" y="50%" dominant-baseline="middle" text-anchor="start" font-weight="normal" pointer-events="none">- id: UUID</text></g></svg><svg x="0" y="70.5" width="159" height="30" class="- name: String" fill="#ffffff"><g><rect width="100%" height="100%" stroke="none" fill="white" class="sc-fqkvVR eDtKfR"></rect><text x="10" y="50%" dominant-baseline="middle" text-anchor="start" font-weight="normal" pointer-events="none">- name: String</text></g></svg><svg x="0" y="100.5" width="159" height="30" class="- email: String" fill="#ffffff"><g><rect width="100%" height="100%" stroke="none" fill="white" class="sc-fqkvVR eDtKfR"></rect><text x="10" y="50%" dominant-baseline="middle" text-anchor="start" font-weight="normal" pointer-events="none">- email: String</text></g></svg><svg x="0" y="130.5" width="159" height="30" class="- password: String" fill="#ffffff"><g><rect width="100%" height="100%" stroke="none" fill="white" class="sc-fqkvVR eDtKfR"></rect><text x="10" y="50%" dominant-baseline="middle" text-anchor="start" font-weight="normal" pointer-events="none">- password: String</text></g></svg><rect width="100%" height="100%" stroke="black" fill="none" class="sc-fqkvVR jAaomD"></rect><path d="M 0 40 H 160" stroke="black" fill="white" class="sc-gEvEer fkqzOi"></path></g></svg><svg x="325" y="15" width="190" height="190" class="EventProject" fill="#ffffff"><g><rect width="100%" height="40" stroke="none" fill="white" class="sc-fqkvVR eDtKfR"></rect><rect y="40" width="100%" height="150" stroke="none" fill="white" class="sc-fqkvVR eDtKfR"></rect><svg height="40"><text x="50%" y="50%" dominant-baseline="middle" text-anchor="middle" font-weight="bold" pointer-events="none">EventProject</text></svg><svg x="0" y="40.5" width="189" height="30" class="- id: UUID" fill="#ffffff"><g><rect width="100%" height="100%" stroke="none" fill="white" class="sc-fqkvVR eDtKfR"></rect><text x="10" y="50%" dominant-baseline="middle" text-anchor="start" font-weight="normal" pointer-events="none">- id: UUID</text></g></svg><svg x="0" y="70.5" width="189" height="30" class="- title: String" fill="#ffffff"><g><rect width="100%" height="100%" stroke="none" fill="white" class="sc-fqkvVR eDtKfR"></rect><text x="10" y="50%" dominant-baseline="middle" text-anchor="start" font-weight="normal" pointer-events="none">- title: String</text></g></svg><svg x="0" y="100.5" width="189" height="30" class="- goal: String" fill="#ffffff"><g><rect width="100%" height="100%" stroke="none" fill="white" class="sc-fqkvVR eDtKfR"></rect><text x="10" y="50%" dominant-baseline="middle" text-anchor="start" font-weight="normal" pointer-events="none">- goal: String</text></g></svg><svg x="0" y="130.5" width="189" height="30" class="- targetAudience: String" fill="#ffffff"><g><rect width="100%" height="100%" stroke="none" fill="white" class="sc-fqkvVR eDtKfR"></rect><text x="10" y="50%" dominant-baseline="middle" text-anchor="start" font-weight="normal" pointer-events="none">- targetAudience: String</text></g></svg><svg x="0" y="160.5" width="189" height="30" class="- status: String" fill="#ffffff"><g><rect width="100%" height="100%" stroke="none" fill="white" class="sc-fqkvVR eDtKfR"></rect><text x="10" y="50%" dominant-baseline="middle" text-anchor="start" font-weight="normal" pointer-events="none">- status: String</text></g></svg><rect width="100%" height="100%" stroke="black" fill="none" class="sc-fqkvVR jAaomD"></rect><path d="M 0 40 H 190" stroke="black" fill="white" class="sc-gEvEer fkqzOi"></path></g></svg><svg x="625" y="15" width="170" height="160" class="UploadedDocument" fill="#ffffff"><g><rect width="100%" height="40" stroke="none" fill="white" class="sc-fqkvVR eDtKfR"></rect><rect y="40" width="100%" height="120" stroke="none" fill="white" class="sc-fqkvVR eDtKfR"></rect><svg height="40"><text x="50%" y="50%" dominant-baseline="middle" text-anchor="middle" font-weight="bold" pointer-events="none">UploadedDocument</text></svg><svg x="0" y="40.5" width="169" height="30" class="- id: UUID" fill="#ffffff"><g><rect width="100%" height="100%" stroke="none" fill="white" class="sc-fqkvVR eDtKfR"></rect><text x="10" y="50%" dominant-baseline="middle" text-anchor="start" font-weight="normal" pointer-events="none">- id: UUID</text></g></svg><svg x="0" y="70.5" width="169" height="30" class="- name: String" fill="#ffffff"><g><rect width="100%" height="100%" stroke="none" fill="white" class="sc-fqkvVR eDtKfR"></rect><text x="10" y="50%" dominant-baseline="middle" text-anchor="start" font-weight="normal" pointer-events="none">- name: String</text></g></svg><svg x="0" y="100.5" width="169" height="30" class="- type: String" fill="#ffffff"><g><rect width="100%" height="100%" stroke="none" fill="white" class="sc-fqkvVR eDtKfR"></rect><text x="10" y="50%" dominant-baseline="middle" text-anchor="start" font-weight="normal" pointer-events="none">- type: String</text></g></svg><svg x="0" y="130.5" width="169" height="30" class="- content: Blob" fill="#ffffff"><g><rect width="100%" height="100%" stroke="none" fill="white" class="sc-fqkvVR eDtKfR"></rect><text x="10" y="50%" dominant-baseline="middle" text-anchor="start" font-weight="normal" pointer-events="none">- content: Blob</text></g></svg><rect width="100%" height="100%" stroke="black" fill="none" class="sc-fqkvVR jAaomD"></rect><path d="M 0 40 H 170" stroke="black" fill="white" class="sc-gEvEer fkqzOi"></path></g></svg><svg x="365" y="305" width="160" height="280" class="EventConcept" fill="#ffffff"><g><rect width="100%" height="40" stroke="none" fill="white" class="sc-fqkvVR eDtKfR"></rect><rect y="40" width="100%" height="240" stroke="none" fill="white" class="sc-fqkvVR eDtKfR"></rect><svg height="40"><text x="50%" y="50%" dominant-baseline="middle" text-anchor="middle" font-weight="bold" pointer-events="none">EventConcept</text></svg><svg x="0" y="40.5" width="159" height="30" class="- theme: String" fill="#ffffff"><g><rect width="100%" height="100%" stroke="none" fill="white" class="sc-fqkvVR eDtKfR"></rect><text x="10" y="50%" dominant-baseline="middle" text-anchor="start" font-weight="normal" pointer-events="none">- theme: String</text></g></svg><svg x="0" y="70.5" width="159" height="30" class="- agenda: String" fill="#ffffff"><g><rect width="100%" height="100%" stroke="none" fill="white" class="sc-fqkvVR eDtKfR"></rect><text x="10" y="50%" dominant-baseline="middle" text-anchor="start" font-weight="normal" pointer-events="none">- agenda: String</text></g></svg><svg x="0" y="100.5" width="159" height="30" class="- sponsors: List" fill="#ffffff"><g><rect width="100%" height="100%" stroke="none" fill="white" class="sc-fqkvVR eDtKfR"></rect><text x="10" y="50%" dominant-baseline="middle" text-anchor="start" font-weight="normal" pointer-events="none">- sponsors: List</text></g></svg><svg x="0" y="130.5" width="159" height="30" class="- ticketPricing: int" fill="#ffffff"><g><rect width="100%" height="100%" stroke="none" fill="white" class="sc-fqkvVR eDtKfR"></rect><text x="10" y="50%" dominant-baseline="middle" text-anchor="start" font-weight="normal" pointer-events="none">- ticketPricing: int</text></g></svg><svg x="0" y="160.5" width="159" height="30" class="- version: int" fill="#ffffff"><g><rect width="100%" height="100%" stroke="none" fill="white" class="sc-fqkvVR eDtKfR"></rect><text x="10" y="50%" dominant-baseline="middle" text-anchor="start" font-weight="normal" pointer-events="none">- version: int</text></g></svg><svg x="0" y="190.5" width="159" height="30" class="- guest_count: int" fill="#ffffff"><g><rect width="100%" height="100%" stroke="none" fill="white" class="sc-fqkvVR eDtKfR"></rect><text x="10" y="50%" dominant-baseline="middle" text-anchor="start" font-weight="normal" pointer-events="none">- guest_count: int</text></g></svg><svg x="0" y="220.5" width="159" height="30" class="- format: String" fill="#ffffff"><g><rect width="100%" height="100%" stroke="none" fill="white" class="sc-fqkvVR eDtKfR"></rect><text x="10" y="50%" dominant-baseline="middle" text-anchor="start" font-weight="normal" pointer-events="none">- format: String</text></g></svg><svg x="0" y="250.5" width="159" height="30" class="- id: UUID" fill="#ffffff"><g><rect width="100%" height="100%" stroke="none" fill="white" class="sc-fqkvVR eDtKfR"></rect><text x="10" y="50%" dominant-baseline="middle" text-anchor="start" font-weight="normal" pointer-events="none">- id: UUID</text></g></svg><rect width="100%" height="100%" stroke="black" fill="none" class="sc-fqkvVR jAaomD"></rect><path d="M 0 40 H 160" stroke="black" fill="white" class="sc-gEvEer fkqzOi"></path></g></svg><svg x="345" y="685" width="190" height="160" class="GenAIContext" fill="#ffffff"><g><rect width="100%" height="40" stroke="none" fill="white" class="sc-fqkvVR eDtKfR"></rect><rect y="40" width="100%" height="120" stroke="none" fill="white" class="sc-fqkvVR eDtKfR"></rect><svg height="40"><text x="50%" y="50%" dominant-baseline="middle" text-anchor="middle" font-weight="bold" pointer-events="none">GenAIContext</text></svg><svg x="0" y="40.5" width="189" height="30" class="- sessionId: UUID" fill="#ffffff"><g><rect width="100%" height="100%" stroke="none" fill="white" class="sc-fqkvVR eDtKfR"></rect><text x="10" y="50%" dominant-baseline="middle" text-anchor="start" font-weight="normal" pointer-events="none">- sessionId: UUID</text></g></svg><svg x="0" y="70.5" width="189" height="30" class="- chatHistory: List" fill="#ffffff"><g><rect width="100%" height="100%" stroke="none" fill="white" class="sc-fqkvVR eDtKfR"></rect><text x="10" y="50%" dominant-baseline="middle" text-anchor="start" font-weight="normal" pointer-events="none">- chatHistory: List</text></g></svg><svg x="0" y="100.5" width="189" height="30" class="- extractedFacts: String" fill="#ffffff"><g><rect width="100%" height="100%" stroke="none" fill="white" class="sc-fqkvVR eDtKfR"></rect><text x="10" y="50%" dominant-baseline="middle" text-anchor="start" font-weight="normal" pointer-events="none">- extractedFacts: String</text></g></svg><svg x="0" y="130.5" width="189" height="30" class="- suggestions: List" fill="#ffffff"><g><rect width="100%" height="100%" stroke="none" fill="white" class="sc-fqkvVR eDtKfR"></rect><text x="10" y="50%" dominant-baseline="middle" text-anchor="start" font-weight="normal" pointer-events="none">- suggestions: List</text></g></svg><rect width="100%" height="100%" stroke="black" fill="none" class="sc-fqkvVR jAaomD"></rect><path d="M 0 40 H 190" stroke="black" fill="white" class="sc-gEvEer fkqzOi"></path></g></svg><svg x="665" y="645" width="170" height="130" class="VectorEmbedding" fill="#ffffff"><g><rect width="100%" height="40" stroke="none" fill="white" class="sc-fqkvVR eDtKfR"></rect><rect y="40" width="100%" height="90" stroke="none" fill="white" class="sc-fqkvVR eDtKfR"></rect><svg height="40"><text x="50%" y="50%" dominant-baseline="middle" text-anchor="middle" font-weight="bold" pointer-events="none">VectorEmbedding</text></svg><svg x="0" y="40.5" width="169" height="30" class="- id: UUID" fill="#ffffff"><g><rect width="100%" height="100%" stroke="none" fill="white" class="sc-fqkvVR eDtKfR"></rect><text x="10" y="50%" dominant-baseline="middle" text-anchor="start" font-weight="normal" pointer-events="none">- id: UUID</text></g></svg><svg x="0" y="70.5" width="169" height="30" class="- docChunk: Text" fill="#ffffff"><g><rect width="100%" height="100%" stroke="none" fill="white" class="sc-fqkvVR eDtKfR"></rect><text x="10" y="50%" dominant-baseline="middle" text-anchor="start" font-weight="normal" pointer-events="none">- docChunk: Text</text></g></svg><svg x="0" y="100.5" width="169" height="30" class="- embedding: Vector" fill="#ffffff"><g><rect width="100%" height="100%" stroke="none" fill="white" class="sc-fqkvVR eDtKfR"></rect><text x="10" y="50%" dominant-baseline="middle" text-anchor="start" font-weight="normal" pointer-events="none">- embedding: Vector</text></g></svg><rect width="100%" height="100%" stroke="black" fill="none" class="sc-fqkvVR jAaomD"></rect><path d="M 0 40 H 170" stroke="black" fill="white" class="sc-gEvEer fkqzOi"></path></g></svg><svg x="15" y="375" width="190" height="130" class="AgendaEntry" fill="#ffffff"><g><rect width="100%" height="40" stroke="none" fill="white" class="sc-fqkvVR eDtKfR"></rect><rect y="40" width="100%" height="90" stroke="none" fill="white" class="sc-fqkvVR eDtKfR"></rect><svg height="40"><text x="50%" y="50%" dominant-baseline="middle" text-anchor="middle" font-weight="bold" pointer-events="none">AgendaEntry</text></svg><svg x="0" y="40.5" width="189" height="30" class="- speakerArray: Speaker" fill="#ffffff"><g><rect width="100%" height="100%" stroke="none" fill="white" class="sc-fqkvVR eDtKfR"></rect><text x="10" y="50%" dominant-baseline="middle" text-anchor="start" font-weight="normal" pointer-events="none">- speakerArray: Speaker</text></g></svg><svg x="0" y="70.5" width="189" height="30" class="- duration: Time" fill="#ffffff"><g><rect width="100%" height="100%" stroke="none" fill="white" class="sc-fqkvVR eDtKfR"></rect><text x="10" y="50%" dominant-baseline="middle" text-anchor="start" font-weight="normal" pointer-events="none">- duration: Time</text></g></svg><svg x="0" y="100.5" width="189" height="30" class="- topic: String" fill="#ffffff"><g><rect width="100%" height="100%" stroke="none" fill="white" class="sc-fqkvVR eDtKfR"></rect><text x="10" y="50%" dominant-baseline="middle" text-anchor="start" font-weight="normal" pointer-events="none">- topic: String</text></g></svg><rect width="100%" height="100%" stroke="black" fill="none" class="sc-fqkvVR jAaomD"></rect><path d="M 0 40 H 190" stroke="black" fill="white" class="sc-gEvEer fkqzOi"></path></g></svg><svg x="205" y="85" width="120" height="31" class="" fill="#ffffff"><g><marker id="marker-1c19a8b9-0726-4e65-b3c9-22ce79a39c44" viewBox="0 0 30 30" markerWidth="30" markerHeight="30" refX="30" refY="15" orient="auto" markerUnits="strokeWidth"><path d="M0,15 L15,22 L30,15 L15,8 z" stroke="white" fill="black" class="sc-eqUAAy dLsBSg"></path></marker><polyline points="120 10,0 10" stroke-width="1" marker-end="url(#marker-1c19a8b9-0726-4e65-b3c9-22ce79a39c44)" stroke="black" fill="none" class="sc-aXZVg eMElBf"></polyline><text x="112" y="10" dy="21" text-anchor="end" pointer-events="none"></text><text x="31" y="10" dy="21" text-anchor="start" pointer-events="none"></text><text x="112" y="10" dy="-10" text-anchor="end" pointer-events="none"></text><text x="31" y="10" dy="-10" text-anchor="start" pointer-events="none"></text></g></svg><svg x="515" y="85" width="110" height="31" class="" fill="#ffffff"><g><marker id="marker-7fdee9ff-2cfc-4e88-8fa5-b1224b2b4bb0" viewBox="0 0 30 30" markerWidth="30" markerHeight="30" refX="30" refY="15" orient="auto" markerUnits="strokeWidth"><path d="M0,15 L15,22 L30,15 L15,8 z" stroke="white" fill="black" class="sc-eqUAAy dLsBSg"></path></marker><polyline points="110 10,0 10" stroke-width="1" marker-end="url(#marker-7fdee9ff-2cfc-4e88-8fa5-b1224b2b4bb0)" stroke="black" fill="none" class="sc-aXZVg eMElBf"></polyline><text x="102" y="10" dy="21" text-anchor="end" pointer-events="none"></text><text x="31" y="10" dy="21" text-anchor="start" pointer-events="none"></text><text x="102" y="10" dy="-10" text-anchor="end" pointer-events="none"></text><text x="31" y="10" dy="-10" text-anchor="start" pointer-events="none"></text></g></svg><svg x="435" y="205" width="10" height="100" class="" fill="#ffffff"><g><marker id="marker-cc6326a7-305e-40df-9129-8a6df83eee93" viewBox="0 0 30 30" markerWidth="22" markerHeight="30" refX="30" refY="15" orient="auto" markerUnits="strokeWidth"><path d="M0,29 L30,15 L0,1" stroke="black" fill="none" class="sc-gEvEer bFSwyf"></path></marker><polyline points="5 100,5 0" stroke-width="1" marker-end="url(#marker-cc6326a7-305e-40df-9129-8a6df83eee93)" stroke-dasharray="7" stroke="black" fill="none" class="sc-aXZVg eMElBf"></polyline><text x="5" y="92" dx="5" text-anchor="start" pointer-events="none"></text><text x="5" y="31" dx="5" dy="10" text-anchor="start" pointer-events="none"></text><text x="5" y="92" dx="-5" text-anchor="end" pointer-events="none"></text><text x="5" y="31" dx="-5" dy="10" text-anchor="end" pointer-events="none"></text></g></svg><svg x="440" y="585" width="10" height="100" class="" fill="#ffffff"><g><marker id="marker-7b5a1ace-7658-459f-8b9b-84861a19651e" viewBox="0 0 30 30" markerWidth="22" markerHeight="30" refX="30" refY="15" orient="auto" markerUnits="strokeWidth"><path d="M0,29 L30,15 L0,1" stroke="black" fill="none" class="sc-gEvEer bFSwyf"></path></marker><polyline points="5 100,5 0" stroke-width="1" marker-end="url(#marker-7b5a1ace-7658-459f-8b9b-84861a19651e)" stroke-dasharray="7" stroke="black" fill="none" class="sc-aXZVg eMElBf"></polyline><text x="5" y="92" dx="5" text-anchor="start" pointer-events="none"></text><text x="5" y="31" dx="5" dy="10" text-anchor="start" pointer-events="none"></text><text x="5" y="92" dx="-5" text-anchor="end" pointer-events="none"></text><text x="5" y="31" dx="-5" dy="10" text-anchor="end" pointer-events="none"></text></g></svg><svg x="435" y="605" width="320" height="281" class="" fill="#ffffff"><g><marker id="marker-a2db7714-aa11-4bd2-ae9f-4cc773045d3e" viewBox="0 0 30 30" markerWidth="22" markerHeight="30" refX="30" refY="15" orient="auto" markerUnits="strokeWidth"><path d="M0,29 L30,15 L0,1" stroke="black" fill="none" class="sc-gEvEer bFSwyf"></path></marker><polyline points="315 40,315 0,190 0,190 280,5 280,5 240" stroke-width="1" marker-end="url(#marker-a2db7714-aa11-4bd2-ae9f-4cc773045d3e)" stroke-dasharray="7" stroke="black" fill="none" class="sc-aXZVg eMElBf"></polyline><text x="315" y="32" dx="5" text-anchor="start" pointer-events="none"></text><text x="5" y="271" dx="5" dy="10" text-anchor="start" pointer-events="none"></text><text x="315" y="32" dx="-5" text-anchor="end" pointer-events="none"></text><text x="5" y="271" dx="-5" dy="10" text-anchor="end" pointer-events="none"></text></g></svg><svg x="205" y="430" width="160" height="31" class="" fill="#ffffff"><g><marker id="marker-e48fa56e-2116-4825-aac0-5ef09a6e43af" viewBox="0 0 30 30" markerWidth="30" markerHeight="30" refX="30" refY="15" orient="auto" markerUnits="strokeWidth"><path d="M0,15 L15,22 L30,15 L15,8 z" stroke="black" fill="white" class="sc-gEvEer fkqzOi"></path></marker><polyline points="0 10,160 10" stroke-width="1" marker-end="url(#marker-e48fa56e-2116-4825-aac0-5ef09a6e43af)" stroke="black" fill="none" class="sc-aXZVg eMElBf"></polyline><text x="8" y="10" dy="21" text-anchor="start" pointer-events="none"></text><text x="129" y="10" dy="21" text-anchor="end" pointer-events="none"></text><text x="8" y="10" dy="-10" text-anchor="start" pointer-events="none"></text><text x="129" y="10" dy="-10" text-anchor="end" pointer-events="none"></text></g></svg></svg>